<?xml version="1.0" standalone="no"?><svg style="display:block;" xmlns="http://www.w3.org/2000/svg" viewBox="0 0 1440 320"><path fill="#ff5500" fill-opacity="1" d="M0,288L34.3,266.7C68.6,245,137,203,206,160C274.3,117,343,75,411,58.7C480,43,549,53,617,85.3C685.7,117,754,171,823,208C891.4,245,960,267,1029,240C1097.1,213,1166,139,1234,112C1302.9,85,1371,107,1406,117.3L1440,128L1440,320L1405.7,320C1371.4,320,1303,320,1234,320C1165.7,320,1097,320,1029,320C960,320,891,320,823,320C754.3,320,686,320,617,320C548.6,320,480,320,411,320C342.9,320,274,320,206,320C137.1,320,69,320,34,320L0,320Z"></path></svg>